<svg aria-label="hyland" id="hyland_logo" xmlns="http://www.w3.org/2000/svg" fill="#006334" viewBox="0 0 280.2 74.8">
    <path d="m85.8 16.2-6.1 15.1-4.2 11.3-4.1-11.4-6-15H52l.5 1.2 16.4 39.3-7.5 17-.5 1.1h13.5l24.2-57.4.5-1.2H85.8Zm-51.2 6.9H12.8V0H0v59.2h12.8V35.5h21.8v23.7h12.9V0H34.6v23.1Zm69-23.1h12.1v59.2h-12.1V0Zm58.9 22.6c-1.6-2.9-4-5.1-7-6.7a26 26 0 0 0-11.7-2.4c-4 0-7.4.7-10.5 2-3 1.2-5.5 3-7.3 5.3-1.9 2.3-3 5-3.3 8.2h13.5c.4-1.6 1.3-3 2.6-3.8 1.3-.9 3-1.3 5-1.3 2-.1 4 .5 5.6 1.8a7 7 0 0 1 2 5.3v1.5h-13.9c-3.4 0-6.3.5-8.8 1.6-4.9 2-8 6.8-7.9 12 0 2.7.7 5 2 7.2a13 13 0 0 0 5.6 5 17 17 0 0 0 7 1.8h1c11 0 15.8-4.5 15.8-4.5v3.5h12V29.8c0-2.5-.5-5-1.7-7.2ZM150 44.8c-.8 1.5-2 2.8-3.6 3.6-1.6.8-3.3 1.3-5.4 1.3-2 0-3.7-.4-4.8-1.2-1.1-.7-1.7-2-1.7-3.3a4 4 0 0 1 1.6-3.3 8 8 0 0 1 4.7-1.2h10.5c0 1.4-.5 2.8-1.3 4v.1ZM279.4 0l-1.7 2.5L276 0h-.8v5.1h1.1v-3l1.1 1.6h.6l1.1-1.6v3h1.1V0h-.8ZM271 1.1h1.3v4h1.1v-4h1.3V0H271v1.1Zm-75.5 12.5a18 18 0 0 0-14 5.8v-5.8h-12.2v45.6h12.1v-24c0-5.7 4.6-10.4 10.3-10.5 5.8 0 9 3.4 9 10v24.6h12.1v-26c0-12.1-5.6-19.7-17.3-19.7Zm58.3 4.4c-3.9-3-8.7-4.6-13.6-4.5-13 0-22.3 9.8-22.3 23.3 0 13 9 23.4 22.3 23.4 5.2 0 9.9-1.7 13.6-4.5v3.5h12V0h-12v18Zm0 20.3a11.4 11.4 0 0 1-11.9 10.5c-6.8 0-11.8-5-11.8-12s5-12 11.8-12c6.5 0 11.2 4.3 11.9 10.5v3Z"/>
</svg>